<?xml version="1.0" encoding="utf-8"?>
<!-- Generator: Adobe Illustrator 17.1.0, SVG Export Plug-In . SVG Version: 6.00 Build 0)  -->
<!DOCTYPE svg PUBLIC "-//W3C//DTD SVG 1.1//EN" "http://www.w3.org/Graphics/SVG/1.1/DTD/svg11.dtd">
<svg version="1.1" id="Thing1" xmlns="http://www.w3.org/2000/svg" xmlns:xlink="http://www.w3.org/1999/xlink" x="0px" y="0px"
	 viewBox="0 0 397 430.2" enable-background="new 0 0 397 430.2" xml:space="preserve">
<g id="Layer_1">
	<g id="MainThing">
		<path fill="#008ABF" d="M321.3,348.8c0,7.6-6.2,13.8-13.8,13.8H90.6c-7.6,0-13.8-6.2-13.8-13.8V131.8c0-7.6,6.2-13.8,13.8-13.8
			h216.9c7.6,0,13.8,6.2,13.8,13.8V348.8z M243.2,239.7c0-24.1-19.5-43.6-43.6-43.6S156,215.6,156,239.7s19.5,43.6,43.6,43.6
			S243.2,263.8,243.2,239.7z"/>
	</g>
	<g id="TopSpines">
		<path fill="#008ABF" d="M209.9,177.2c0,5.4-4.4,9.8-9.8,9.8l0,0c-5.4,0-9.8-4.4-9.8-9.8V58.9c0-5.4,4.4-9.8,9.8-9.8l0,0
			c5.4,0,9.8,4.4,9.8,9.8V177.2z M271.9,58.9c0-5.4-4.4-9.8-9.8-9.8l0,0c-5.4,0-9.8,4.4-9.8,9.8v118.2c0,5.4,4.4,9.8,9.8,9.8l0,0
			c5.4,0,9.8-4.4,9.8-9.8V58.9z M148,58.9c0-5.4-4.4-9.8-9.8-9.8l0,0c-5.4,0-9.8,4.4-9.8,9.8v118.2c0,5.4,4.4,9.8,9.8,9.8l0,0
			c5.4,0,9.8-4.4,9.8-9.8V58.9z"/>
		<path fill="#008ABF" d="M208.8,420.5c0,5.4-4.4,9.8-9.8,9.8l0,0c-5.4,0-9.8-4.4-9.8-9.8V302.3c0-5.4,4.4-9.8,9.8-9.8l0,0
			c5.4,0,9.8,4.4,9.8,9.8V420.5z M270.8,302.3c0-5.4-4.4-9.8-9.8-9.8l0,0c-5.4,0-9.8,4.4-9.8,9.8v118.2c0,5.4,4.4,9.8,9.8,9.8l0,0
			c5.4,0,9.8-4.4,9.8-9.8V302.3z M146.8,302.3c0-5.4-4.4-9.8-9.8-9.8l0,0c-5.4,0-9.8,4.4-9.8,9.8v118.2c0,5.4,4.4,9.8,9.8,9.8l0,0
			c5.4,0,9.8-4.4,9.8-9.8V302.3z"/>
		<path fill="#008ABF" d="M390.1,242.6c0,5.4-4.4,9.8-9.8,9.8H262.2c-5.4,0-9.8-4.4-9.8-9.8l0,0c0-5.4,4.4-9.8,9.8-9.8h118.2
			C385.8,232.8,390.1,237.2,390.1,242.6L390.1,242.6z M390.1,180.6c0-5.4-4.4-9.8-9.8-9.8H262.2c-5.4,0-9.8,4.4-9.8,9.8l0,0
			c0,5.4,4.4,9.8,9.8,9.8h118.2C385.8,190.4,390.1,186,390.1,180.6L390.1,180.6z M390.1,304.6c0-5.4-4.4-9.8-9.8-9.8H262.2
			c-5.4,0-9.8,4.4-9.8,9.8l0,0c0,5.4,4.4,9.8,9.8,9.8h118.2C385.8,314.3,390.1,310,390.1,304.6L390.1,304.6z"/>
		<path fill="#008ABF" d="M145.7,242.6c0,5.4-4.4,9.8-9.8,9.8H17.7c-5.4,0-9.8-4.4-9.8-9.8l0,0c0-5.4,4.4-9.8,9.8-9.8h118.2
			C141.3,232.8,145.7,237.2,145.7,242.6L145.7,242.6z M145.7,180.6c0-5.4-4.4-9.8-9.8-9.8H17.7c-5.4,0-9.8,4.4-9.8,9.8l0,0
			c0,5.4,4.4,9.8,9.8,9.8h118.2C141.3,190.4,145.7,186,145.7,180.6L145.7,180.6z M145.7,304.6c0-5.4-4.4-9.8-9.8-9.8H17.7
			c-5.4,0-9.8,4.4-9.8,9.8l0,0c0,5.4,4.4,9.8,9.8,9.8h118.2C141.3,314.3,145.7,310,145.7,304.6L145.7,304.6z"/>
	</g>
</g>
<g id="Layer_2">
	<circle fill="#FFFFFF" cx="198.9" cy="239.9" r="76.7"/>
</g>
<g id="Layer_3">
	<circle fill="#00649D" cx="212.3" cy="228.2" r="49"/>
</g>
<g id="Layer_4">
	<circle fill="#FFFFFF" cx="234" cy="212" r="13.8"/>
</g>
</svg>
